0
SECTION
2
HEADER
9
$INSUNITS
70
4
9
$ACADVER
1
AC1014
9
$HANDSEED
5
FFFF
0
ENDSEC
0
SECTION
2
TABLES
0
TABLE
2
VPORT
5
8
100
AcDbSymbolTable
0
ENDTAB
0
TABLE
2
LTYPE
5
5
100
AcDbSymbolTable
0
LTYPE
5
14
100
AcDbSymbolTableRecord
100
AcDbLinetypeTableRecord
2
BYBLOCK
70
0
0
LTYPE
5
15
100
AcDbSymbolTableRecord
100
AcDbLinetypeTableRecord
2
BYLAYER
70
0
0
ENDTAB
0
TABLE
2
LAYER
5
2
100
AcDbSymbolTable
70
2
0
LAYER
5
50
100
AcDbSymbolTableRecord
100
AcDbLayerTableRecord
2
0
70
0
6
CONTINUOUS
0
ENDTAB
0
TABLE
2
STYLE
5
3
100
AcDbSymbolTable
70
1
0
STYLE
5
11
100
AcDbSymbolTableRecord
100
AcDbTextStyleTableRecord
2
STANDARD
70
0
0
ENDTAB
0
TABLE
2
VIEW
5
6
100
AcDbSymbolTable
70
0
0
ENDTAB
0
TABLE
2
UCS
5
7
100
AcDbSymbolTable
70
0
0
ENDTAB
0
TABLE
2
APPID
5
9
100
AcDbSymbolTable
70
2
0
APPID
5
12
100
AcDbSymbolTableRecord
100
AcDbRegAppTableRecord
2
ACAD
70
0
0
ENDTAB
0
TABLE
2
DIMSTYLE
5
A
100
AcDbSymbolTable
70
1
0
ENDTAB
0
TABLE
2
BLOCK_RECORD
5
1
100
AcDbSymbolTable
70
1
0
BLOCK_RECORD
5
1F
100
AcDbSymbolTableRecord
100
AcDbBlockTableRecord
2
*MODEL_SPACE
0
BLOCK_RECORD
5
1B
100
AcDbSymbolTableRecord
100
AcDbBlockTableRecord
2
*PAPER_SPACE
0
ENDTAB
0
ENDSEC
0
SECTION
2
BLOCKS
0
BLOCK
5
20
100
AcDbEntity
100
AcDbBlockBegin
2
*MODEL_SPACE
0
ENDBLK
5
21
100
AcDbEntity
100
AcDbBlockEnd
0
BLOCK
5
1C
100
AcDbEntity
100
AcDbBlockBegin
2
*PAPER_SPACE
0
ENDBLK
5
1D
100
AcDbEntity
100
AcDbBlockEnd
0
ENDSEC
0
SECTION
2
ENTITIES
0
ARC
5
100
100
AcDbEntity
8
0
100
AcDbCircle
10
-104.97921494997163
20
-209.35551249116469
30
0
40
2.999999999942653
210
0
220
0
230
1
100
AcDbArc
50
-90.000016770607857
51
89.999983229392143
0
LINE
5
101
100
AcDbEntity
8
0
100
AcDbLine
10
-104.97921582807861
20
-212.35551249110722
30
0
11
-108.97921582807734
21
-212.3555113202971
31
0
0
ARC
5
102
100
AcDbEntity
8
0
100
AcDbCircle
10
-108.97921494997142
20
-209.35551132035258
30
0
40
2.999999999944607
210
0
220
-0
230
1
100
AcDbArc
50
89.999983229640492
51
269.99998322964046
0
LINE
5
103
100
AcDbEntity
8
0
100
AcDbLine
10
-108.97921407187745
20
-206.35551132040808
30
0
11
-104.9792141165681
21
-206.35551249122216
31
0
0
LWPOLYLINE
5
104
100
AcDbEntity
8
0
100
AcDbPolyline
90
4
70
1
43
0.0
10
3.0207850502169826
20
-206.35551132066624
42
-0.99999999999999989
10
3.0207850501452898
20
-212.35551132021797
10
-0.97921494985436364
20
-212.35551132017306
42
-0.99999999999999989
10
-0.97921494978705281
20
-206.35551132063034
0
LWPOLYLINE
5
105
100
AcDbEntity
8
0
100
AcDbPolyline
90
4
70
1
43
0.0
10
-212.97921495001535
20
-206.3555113206111
42
-0.99999999999999989
10
-212.97921494962654
20
-212.35551132056906
10
-216.97921494981262
20
-212.35551132057341
42
-0.99999999999999989
10
-216.97921494982569
20
-206.3555113206117
0
ARC
5
106
100
AcDbEntity
8
0
100
AcDbCircle
10
-249.97917197846451
20
-210.35551132040081
30
0
40
5.0000000000000355
210
0
220
0
230
1
100
AcDbArc
50
180
51
270.00000000000034
0
LINE
5
107
100
AcDbEntity
8
0
100
AcDbLine
10
-249.97917197846448
20
-215.35551132040084
30
0
11
36.020738566502288
21
-215.35551132041618
31
0
0
ARC
5
108
100
AcDbEntity
8
0
100
AcDbCircle
10
36.02073856650226
20
-210.35551132041618
30
0
40
5
210
0
220
0
230
1
100
AcDbArc
50
270.00000000000034
51
360
0
LINE
5
109
100
AcDbEntity
8
0
100
AcDbLine
10
41.02073856650226
20
-210.35551132057125
30
0
11
41.020738566734792
21
-202.85654901133836
31
0
0
LINE
5
110
100
AcDbEntity
8
0
100
AcDbLine
10
-33.124893074349401
20
-9.3555113204193283
30
0
11
-187.46688951905114
21
-9.3555113204192963
31
0
0
LINE
5
111
100
AcDbEntity
8
0
100
AcDbLine
10
48.09180638308505
20
-72.284443508750115
30
0
11
-1.9057215502387947
21
-22.28691557232505
31
0
0
ARC
5
112
100
AcDbEntity
8
0
100
AcDbCircle
10
-33.124893074349423
20
-53.506087094499236
30
0
40
44.150575774079911
210
0
220
-0
230
1
100
AcDbArc
50
44.999999998223053
51
89.999999999999972
0
ARC
5
113
100
AcDbEntity
8
0
100
AcDbCircle
10
-187.46688951905114
20
-37.491769675463168
30
0
40
28.136258355043871
210
0
220
-0
230
1
100
AcDbArc
50
90
51
135.00000030866553
0
LINE
5
114
100
AcDbEntity
8
0
100
AcDbLine
10
-207.36222870630007
20
-17.596430702575752
30
0
11
-262.05024096113567
21
-72.284443546645008
31
0
0
ARC
5
115
100
AcDbEntity
8
0
100
AcDbCircle
10
41.020738570992108
20
-79.355511320404432
30
0
40
10.00000000001152
210
-0
220
0
230
1
100
AcDbArc
50
0
51
44.999999998222947
0
ARC
5
116
100
AcDbEntity
8
0
100
AcDbCircle
10
-254.97917311118923
20
-79.355511320579737
30
0
40
10.000000000106244
210
0
220
0
230
1
100
AcDbArc
50
135.00000030795564
51
180
0
LINE
5
117
100
AcDbEntity
8
0
100
AcDbLine
10
-264.97917311129549
20
-79.355511320400169
30
0
11
-264.97917310967819
21
-188.71373322653255
31
0
0
ARC
5
118
100
AcDbEntity
8
0
100
AcDbCircle
10
-254.9791731096783
20
-188.71373322642648
30
0
40
9.9999999999999289
210
0
220
0
230
1
100
AcDbArc
50
180
51
250.00000030866028
0
LINE
5
119
100
AcDbEntity
8
0
100
AcDbLine
10
-258.3993744923124
20
-198.11065945271056
30
0
11
-258.26907132750517
21
-198.15808592533597
31
0
0
LINE
5
120
100
AcDbEntity
8
0
100
AcDbLine
10
44.310637850106659
20
-198.15808590756365
30
0
11
44.440940004257371
21
-198.11065980199203
31
0
0
ARC
5
121
100
AcDbEntity
8
0
100
AcDbCircle
10
41.020738570999136
20
-188.71373359412874
30
0
40
10.000000000004475
210
-0
220
0
230
1
100
AcDbArc
50
-69.999999999999929
51
0
0
LINE
5
122
100
AcDbEntity
8
0
100
AcDbLine
10
51.020738571003605
20
-188.71373359412874
30
0
11
51.020738571003633
21
-79.355511320404432
31
0
0
ARC
5
123
100
AcDbEntity
8
0
100
AcDbCircle
10
46.020738566735055
20
-202.85654901149343
30
0
40
5.0000000000002354
210
0
220
0
230
1
100
AcDbArc
50
109.99999999999963
51
180
0
ARC
5
124
100
AcDbEntity
8
0
100
AcDbCircle
10
-259.97917201886253
20
-202.85654903846338
30
0
40
5
210
0
220
-0
230
1
100
AcDbArc
50
0
51
70.000000308169035
0
LINE
5
125
100
AcDbEntity
8
0
100
AcDbLine
10
-254.97917201886253
20
-202.85654901152725
30
0
11
-254.97917197846454
21
-210.35551134732142
31
0
0
ARC
5
126
100
AcDbEntity
8
0
100
AcDbCircle
10
-158.97921494985223
20
-209.35551132037494
30
0
40
2.9999999998511839
210
0
220
0
230
1
100
AcDbArc
50
-89.999999999998934
51
90.000000000001634
0
LINE
5
127
100
AcDbEntity
8
0
100
AcDbLine
10
-158.97921494985218
20
-212.35551132022613
30
0
11
-162.97921494985201
21
-212.35551132022661
31
0
0
ARC
5
128
100
AcDbEntity
8
0
100
AcDbCircle
10
-162.97921494985221
20
-209.35551132037691
30
0
40
2.9999999998496563
210
0
220
0
230
1
100
AcDbArc
50
90.000000000004889
51
270.00000000000489
0
LINE
5
129
100
AcDbEntity
8
0
100
AcDbLine
10
-162.97921494985246
20
-206.35551132052726
30
0
11
-158.97921494985232
21
-206.35551132052376
31
0
0
ARC
5
130
100
AcDbEntity
8
0
100
AcDbCircle
10
-50.979214949820822
20
-209.35551249115679
30
0
40
2.9999999997001092
210
0
220
0
230
1
100
AcDbArc
50
-90.000016770105475
51
89.999983229894667
0
LINE
5
131
100
AcDbEntity
8
0
100
AcDbLine
10
-50.979215827901491
20
-212.35551249085677
30
0
11
-54.9792158279012
21
-212.35551132008266
31
0
0
ARC
5
132
100
AcDbEntity
8
0
100
AcDbCircle
10
-54.979214949820594
20
-209.35551132038262
30
0
40
2.9999999997002158
210
0
220
-0
230
1
100
AcDbArc
50
89.999983229896159
51
269.99998202247781
0
LINE
5
133
100
AcDbEntity
8
0
100
AcDbLine
10
-54.97921407174001
20
-206.35551132068255
30
0
11
-50.979214116443657
21
-206.35551249145681
31
0
0
ENDSEC
0
SECTION
2
OBJECTS
0
DICTIONARY
5
C
100
AcDbDictionary
3
ACAD_GROUP
350
D
3
ACAD_MLINESTYLE
350
17
0
DICTIONARY
5
D
100
AcDbDictionary
0
DICTIONARY
5
1A
330
C
100
AcDbDictionary
0
DICTIONARY
5
17
100
AcDbDictionary
0
ENDSEC
0
EOF
